<mxfile host="app.diagrams.net" modified="2022-10-17T01:15:56.560Z" agent="5.0 (Macintosh; Intel Mac OS X 10_15_7) AppleWebKit/537.36 (KHTML, like Gecko) Chrome/106.0.0.0 Safari/537.36" etag="7eGoevthTLFjcUOyQ6mT" version="20.4.1" type="github">
  <diagram name="Page-1" id="c4acf3e9-155e-7222-9cf6-157b1a14988f">
    <mxGraphModel dx="1733" dy="1118" grid="1" gridSize="10" guides="1" tooltips="1" connect="1" arrows="1" fold="1" page="1" pageScale="1" pageWidth="850" pageHeight="1100" background="none" math="0" shadow="0">
      <root>
        <mxCell id="0" />
        <mxCell id="1" parent="0" />
        <mxCell id="78To-03qvAW-9XxqEfNM-46" value="" style="rounded=0;whiteSpace=wrap;html=1;" vertex="1" parent="1">
          <mxGeometry x="470" y="40" width="870" height="940" as="geometry" />
        </mxCell>
        <mxCell id="78To-03qvAW-9XxqEfNM-18" value="VPC" style="sketch=0;outlineConnect=0;gradientColor=none;html=1;whiteSpace=wrap;fontSize=12;fontStyle=0;shape=mxgraph.aws4.group;grIcon=mxgraph.aws4.group_vpc;strokeColor=#879196;fillColor=none;verticalAlign=top;align=left;spacingLeft=30;fontColor=#879196;dashed=0;" vertex="1" parent="1">
          <mxGeometry x="540" y="315" width="780" height="635" as="geometry" />
        </mxCell>
        <mxCell id="78To-03qvAW-9XxqEfNM-34" value="" style="edgeStyle=orthogonalEdgeStyle;rounded=0;orthogonalLoop=1;jettySize=auto;html=1;" edge="1" parent="1" source="78To-03qvAW-9XxqEfNM-1" target="78To-03qvAW-9XxqEfNM-21">
          <mxGeometry relative="1" as="geometry">
            <Array as="points">
              <mxPoint x="610" y="690" />
              <mxPoint x="959" y="690" />
            </Array>
          </mxGeometry>
        </mxCell>
        <mxCell id="78To-03qvAW-9XxqEfNM-1" value="Authentication&amp;nbsp;" style="shape=umlFrame;whiteSpace=wrap;html=1;rounded=0;shadow=0;comic=0;labelBackgroundColor=none;strokeWidth=1;fontFamily=Verdana;fontSize=10;align=center;width=110;height=30;" vertex="1" parent="1">
          <mxGeometry x="540" y="80" width="280" height="170" as="geometry" />
        </mxCell>
        <mxCell id="78To-03qvAW-9XxqEfNM-2" value="Two-way radio&amp;nbsp;" style="shape=umlFrame;whiteSpace=wrap;html=1;rounded=0;shadow=0;comic=0;labelBackgroundColor=none;strokeWidth=1;fontFamily=Verdana;fontSize=10;align=center;width=110;height=30;" vertex="1" parent="1">
          <mxGeometry x="1010" y="427.5" width="280" height="177.5" as="geometry" />
        </mxCell>
        <mxCell id="78To-03qvAW-9XxqEfNM-4" value="Notification" style="shape=umlFrame;whiteSpace=wrap;html=1;rounded=0;shadow=0;comic=0;labelBackgroundColor=none;strokeWidth=1;fontFamily=Verdana;fontSize=10;align=center;width=110;height=30;" vertex="1" parent="1">
          <mxGeometry x="649" y="755" width="280" height="170" as="geometry" />
        </mxCell>
        <mxCell id="78To-03qvAW-9XxqEfNM-5" value="Event management" style="shape=umlFrame;whiteSpace=wrap;html=1;rounded=0;shadow=0;comic=0;labelBackgroundColor=none;strokeWidth=1;fontFamily=Verdana;fontSize=10;align=center;width=110;height=30;" vertex="1" parent="1">
          <mxGeometry x="636.19" y="430" width="280" height="175" as="geometry" />
        </mxCell>
        <mxCell id="78To-03qvAW-9XxqEfNM-6" value="" style="sketch=0;outlineConnect=0;fontColor=#232F3E;gradientColor=none;fillColor=#232F3D;strokeColor=none;dashed=0;verticalLabelPosition=bottom;verticalAlign=top;align=center;html=1;fontSize=12;fontStyle=0;aspect=fixed;pointerEvents=1;shape=mxgraph.aws4.user;" vertex="1" parent="1">
          <mxGeometry x="160" y="106.25" width="80" height="80" as="geometry" />
        </mxCell>
        <mxCell id="78To-03qvAW-9XxqEfNM-38" style="edgeStyle=orthogonalEdgeStyle;rounded=0;orthogonalLoop=1;jettySize=auto;html=1;exitX=0.75;exitY=1;exitDx=0;exitDy=0;exitPerimeter=0;startArrow=none;startFill=0;entryX=0;entryY=0.75;entryDx=0;entryDy=0;entryPerimeter=0;" edge="1" parent="1" source="78To-03qvAW-9XxqEfNM-7" target="78To-03qvAW-9XxqEfNM-19">
          <mxGeometry relative="1" as="geometry">
            <mxPoint x="500" y="680" as="targetPoint" />
            <Array as="points">
              <mxPoint x="400" y="504" />
            </Array>
          </mxGeometry>
        </mxCell>
        <mxCell id="78To-03qvAW-9XxqEfNM-7" value="" style="sketch=0;points=[[0,0,0],[0.25,0,0],[0.5,0,0],[0.75,0,0],[1,0,0],[0,1,0],[0.25,1,0],[0.5,1,0],[0.75,1,0],[1,1,0],[0,0.25,0],[0,0.5,0],[0,0.75,0],[1,0.25,0],[1,0.5,0],[1,0.75,0]];outlineConnect=0;fontColor=#232F3E;gradientColor=#4AB29A;gradientDirection=north;fillColor=#116D5B;strokeColor=#ffffff;dashed=0;verticalLabelPosition=bottom;verticalAlign=top;align=center;html=1;fontSize=12;fontStyle=0;aspect=fixed;shape=mxgraph.aws4.resourceIcon;resIcon=mxgraph.aws4.desktop_and_app_streaming;" vertex="1" parent="1">
          <mxGeometry x="370" y="126.25" width="40" height="40" as="geometry" />
        </mxCell>
        <mxCell id="78To-03qvAW-9XxqEfNM-9" value="" style="endArrow=classic;html=1;rounded=0;entryX=0;entryY=0.5;entryDx=0;entryDy=0;entryPerimeter=0;" edge="1" parent="1" source="78To-03qvAW-9XxqEfNM-6" target="78To-03qvAW-9XxqEfNM-7">
          <mxGeometry width="50" height="50" relative="1" as="geometry">
            <mxPoint x="140" y="265" as="sourcePoint" />
            <mxPoint x="190" y="215" as="targetPoint" />
          </mxGeometry>
        </mxCell>
        <mxCell id="78To-03qvAW-9XxqEfNM-10" value="" style="sketch=0;points=[[0,0,0],[0.25,0,0],[0.5,0,0],[0.75,0,0],[1,0,0],[0,1,0],[0.25,1,0],[0.5,1,0],[0.75,1,0],[1,1,0],[0,0.25,0],[0,0.5,0],[0,0.75,0],[1,0.25,0],[1,0.5,0],[1,0.75,0]];outlineConnect=0;fontColor=#232F3E;gradientColor=#FF4F8B;gradientDirection=north;fillColor=#BC1356;strokeColor=#ffffff;dashed=0;verticalLabelPosition=bottom;verticalAlign=top;align=center;html=1;fontSize=12;fontStyle=0;aspect=fixed;shape=mxgraph.aws4.resourceIcon;resIcon=mxgraph.aws4.sns;" vertex="1" parent="1">
          <mxGeometry x="703.0100000000001" y="840.5" width="42.5" height="42.5" as="geometry" />
        </mxCell>
        <mxCell id="78To-03qvAW-9XxqEfNM-12" value="" style="sketch=0;points=[[0,0,0],[0.25,0,0],[0.5,0,0],[0.75,0,0],[1,0,0],[0,1,0],[0.25,1,0],[0.5,1,0],[0.75,1,0],[1,1,0],[0,0.25,0],[0,0.5,0],[0,0.75,0],[1,0.25,0],[1,0.5,0],[1,0.75,0]];outlineConnect=0;fontColor=#232F3E;gradientColor=#F78E04;gradientDirection=north;fillColor=#D05C17;strokeColor=#ffffff;dashed=0;verticalLabelPosition=bottom;verticalAlign=top;align=center;html=1;fontSize=12;fontStyle=0;aspect=fixed;shape=mxgraph.aws4.resourceIcon;resIcon=mxgraph.aws4.lambda;" vertex="1" parent="1">
          <mxGeometry x="840.0000000000001" y="840.5" width="41.25" height="41.25" as="geometry" />
        </mxCell>
        <mxCell id="78To-03qvAW-9XxqEfNM-16" value="" style="endArrow=classic;html=1;rounded=0;entryX=0.004;entryY=0.388;entryDx=0;entryDy=0;entryPerimeter=0;exitX=1;exitY=0.5;exitDx=0;exitDy=0;exitPerimeter=0;" edge="1" parent="1" source="78To-03qvAW-9XxqEfNM-7" target="78To-03qvAW-9XxqEfNM-1">
          <mxGeometry width="50" height="50" relative="1" as="geometry">
            <mxPoint x="256.36363636363626" y="156.25" as="sourcePoint" />
            <mxPoint x="380" y="156.25" as="targetPoint" />
          </mxGeometry>
        </mxCell>
        <mxCell id="78To-03qvAW-9XxqEfNM-17" value="" style="sketch=0;points=[[0,0,0],[0.25,0,0],[0.5,0,0],[0.75,0,0],[1,0,0],[0,1,0],[0.25,1,0],[0.5,1,0],[0.75,1,0],[1,1,0],[0,0.25,0],[0,0.5,0],[0,0.75,0],[1,0.25,0],[1,0.5,0],[1,0.75,0]];points=[[0,0,0],[0.25,0,0],[0.5,0,0],[0.75,0,0],[1,0,0],[0,1,0],[0.25,1,0],[0.5,1,0],[0.75,1,0],[1,1,0],[0,0.25,0],[0,0.5,0],[0,0.75,0],[1,0.25,0],[1,0.5,0],[1,0.75,0]];outlineConnect=0;fontColor=#232F3E;gradientColor=#F34482;gradientDirection=north;fillColor=#BC1356;strokeColor=#ffffff;dashed=0;verticalLabelPosition=bottom;verticalAlign=top;align=center;html=1;fontSize=12;fontStyle=0;aspect=fixed;shape=mxgraph.aws4.resourceIcon;resIcon=mxgraph.aws4.cloudwatch_2;" vertex="1" parent="1">
          <mxGeometry x="698.75" y="620" width="46.76" height="46.76" as="geometry" />
        </mxCell>
        <mxCell id="78To-03qvAW-9XxqEfNM-35" style="edgeStyle=orthogonalEdgeStyle;rounded=0;orthogonalLoop=1;jettySize=auto;html=1;exitX=0;exitY=0.5;exitDx=0;exitDy=0;exitPerimeter=0;entryX=0.5;entryY=1;entryDx=0;entryDy=0;entryPerimeter=0;startArrow=classic;startFill=1;" edge="1" parent="1" source="78To-03qvAW-9XxqEfNM-19" target="78To-03qvAW-9XxqEfNM-21">
          <mxGeometry relative="1" as="geometry" />
        </mxCell>
        <mxCell id="78To-03qvAW-9XxqEfNM-39" style="rounded=0;orthogonalLoop=1;jettySize=auto;html=1;exitX=1;exitY=0.75;exitDx=0;exitDy=0;exitPerimeter=0;startArrow=none;startFill=0;endArrow=classic;endFill=1;edgeStyle=orthogonalEdgeStyle;" edge="1" parent="1" source="78To-03qvAW-9XxqEfNM-19" target="78To-03qvAW-9XxqEfNM-33">
          <mxGeometry relative="1" as="geometry">
            <Array as="points">
              <mxPoint x="748" y="500" />
            </Array>
          </mxGeometry>
        </mxCell>
        <mxCell id="78To-03qvAW-9XxqEfNM-40" style="edgeStyle=orthogonalEdgeStyle;rounded=0;orthogonalLoop=1;jettySize=auto;html=1;exitX=1;exitY=0.25;exitDx=0;exitDy=0;exitPerimeter=0;startArrow=none;startFill=0;endArrow=classic;endFill=1;entryX=0.5;entryY=1;entryDx=0;entryDy=0;entryPerimeter=0;" edge="1" parent="1" source="78To-03qvAW-9XxqEfNM-19" target="78To-03qvAW-9XxqEfNM-20">
          <mxGeometry relative="1" as="geometry">
            <mxPoint x="920" y="280" as="targetPoint" />
            <Array as="points">
              <mxPoint x="748" y="480" />
              <mxPoint x="810" y="480" />
              <mxPoint x="810" y="400" />
              <mxPoint x="896" y="400" />
            </Array>
          </mxGeometry>
        </mxCell>
        <mxCell id="78To-03qvAW-9XxqEfNM-19" value="" style="sketch=0;points=[[0,0,0],[0.25,0,0],[0.5,0,0],[0.75,0,0],[1,0,0],[0,1,0],[0.25,1,0],[0.5,1,0],[0.75,1,0],[1,1,0],[0,0.25,0],[0,0.5,0],[0,0.75,0],[1,0.25,0],[1,0.5,0],[1,0.75,0]];outlineConnect=0;fontColor=#232F3E;gradientColor=#F78E04;gradientDirection=north;fillColor=#D05C17;strokeColor=#ffffff;dashed=0;verticalLabelPosition=bottom;verticalAlign=top;align=center;html=1;fontSize=12;fontStyle=0;aspect=fixed;shape=mxgraph.aws4.resourceIcon;resIcon=mxgraph.aws4.lambda;" vertex="1" parent="1">
          <mxGeometry x="703.01" y="470" width="45" height="45" as="geometry" />
        </mxCell>
        <mxCell id="78To-03qvAW-9XxqEfNM-20" value="" style="outlineConnect=0;dashed=0;verticalLabelPosition=bottom;verticalAlign=top;align=center;html=1;shape=mxgraph.aws3.dynamo_db;fillColor=#2E73B8;gradientColor=none;" vertex="1" parent="1">
          <mxGeometry x="876.19" y="144.5" width="40" height="41" as="geometry" />
        </mxCell>
        <mxCell id="78To-03qvAW-9XxqEfNM-21" value="" style="sketch=0;points=[[0,0,0],[0.25,0,0],[0.5,0,0],[0.75,0,0],[1,0,0],[0,1,0],[0.25,1,0],[0.5,1,0],[0.75,1,0],[1,1,0],[0,0.25,0],[0,0.5,0],[0,0.75,0],[1,0.25,0],[1,0.5,0],[1,0.75,0]];outlineConnect=0;fontColor=#232F3E;gradientColor=#FF4F8B;gradientDirection=north;fillColor=#BC1356;strokeColor=#ffffff;dashed=0;verticalLabelPosition=bottom;verticalAlign=top;align=center;html=1;fontSize=12;fontStyle=0;aspect=fixed;shape=mxgraph.aws4.resourceIcon;resIcon=mxgraph.aws4.api_gateway;" vertex="1" parent="1">
          <mxGeometry x="950" y="666.76" width="39" height="39" as="geometry" />
        </mxCell>
        <mxCell id="78To-03qvAW-9XxqEfNM-24" value="" style="outlineConnect=0;dashed=0;verticalLabelPosition=bottom;verticalAlign=top;align=center;html=1;shape=mxgraph.aws3.iam;fillColor=#759C3E;gradientColor=none;" vertex="1" parent="1">
          <mxGeometry x="610" y="139.75" width="26.19" height="50.5" as="geometry" />
        </mxCell>
        <mxCell id="78To-03qvAW-9XxqEfNM-25" value="" style="sketch=0;outlineConnect=0;fontColor=#232F3E;gradientColor=none;fillColor=#B0084D;strokeColor=none;dashed=0;verticalLabelPosition=bottom;verticalAlign=top;align=center;html=1;fontSize=12;fontStyle=0;aspect=fixed;pointerEvents=1;shape=mxgraph.aws4.alarm;" vertex="1" parent="1">
          <mxGeometry x="570.62" y="845" width="38" height="38" as="geometry" />
        </mxCell>
        <mxCell id="78To-03qvAW-9XxqEfNM-27" value="" style="sketch=0;outlineConnect=0;fontColor=#232F3E;gradientColor=none;fillColor=#B0084D;strokeColor=none;dashed=0;verticalLabelPosition=bottom;verticalAlign=top;align=center;html=1;fontSize=12;fontStyle=0;aspect=fixed;pointerEvents=1;shape=mxgraph.aws4.logs;" vertex="1" parent="1">
          <mxGeometry x="710" y="146.54999999999998" width="49.63" height="36.9" as="geometry" />
        </mxCell>
        <mxCell id="78To-03qvAW-9XxqEfNM-28" value="" style="endArrow=classic;html=1;rounded=0;entryX=0.25;entryY=1;entryDx=0;entryDy=0;entryPerimeter=0;edgeStyle=orthogonalEdgeStyle;" edge="1" parent="1" source="78To-03qvAW-9XxqEfNM-25" target="78To-03qvAW-9XxqEfNM-7">
          <mxGeometry width="50" height="50" relative="1" as="geometry">
            <mxPoint x="440" y="865" as="sourcePoint" />
            <mxPoint x="340" y="385" as="targetPoint" />
          </mxGeometry>
        </mxCell>
        <mxCell id="78To-03qvAW-9XxqEfNM-31" value="QR code scan" style="shape=umlFrame;whiteSpace=wrap;html=1;rounded=0;shadow=0;comic=0;labelBackgroundColor=none;strokeWidth=1;fontFamily=Verdana;fontSize=10;align=center;width=110;height=30;" vertex="1" parent="1">
          <mxGeometry x="1020" y="755" width="280" height="170" as="geometry" />
        </mxCell>
        <mxCell id="78To-03qvAW-9XxqEfNM-33" value="" style="outlineConnect=0;dashed=0;verticalLabelPosition=bottom;verticalAlign=top;align=center;html=1;shape=mxgraph.aws3.rds_db_instance;fillColor=#2E73B8;gradientColor=none;" vertex="1" parent="1">
          <mxGeometry x="840" y="470" width="54.57" height="60" as="geometry" />
        </mxCell>
        <mxCell id="78To-03qvAW-9XxqEfNM-41" value="" style="sketch=0;points=[[0,0,0],[0.25,0,0],[0.5,0,0],[0.75,0,0],[1,0,0],[0,1,0],[0.25,1,0],[0.5,1,0],[0.75,1,0],[1,1,0],[0,0.25,0],[0,0.5,0],[0,0.75,0],[1,0.25,0],[1,0.5,0],[1,0.75,0]];outlineConnect=0;fontColor=#232F3E;gradientColor=#60A337;gradientDirection=north;fillColor=#277116;strokeColor=#ffffff;dashed=0;verticalLabelPosition=bottom;verticalAlign=top;align=center;html=1;fontSize=12;fontStyle=0;aspect=fixed;shape=mxgraph.aws4.resourceIcon;resIcon=mxgraph.aws4.s3;" vertex="1" parent="1">
          <mxGeometry x="1050" y="503" width="60" height="60" as="geometry" />
        </mxCell>
        <mxCell id="78To-03qvAW-9XxqEfNM-43" style="edgeStyle=none;rounded=0;orthogonalLoop=1;jettySize=auto;html=1;exitX=1;exitY=0.5;exitDx=0;exitDy=0;exitPerimeter=0;startArrow=none;startFill=0;endArrow=classic;endFill=1;" edge="1" parent="1" source="78To-03qvAW-9XxqEfNM-33" target="78To-03qvAW-9XxqEfNM-33">
          <mxGeometry relative="1" as="geometry" />
        </mxCell>
        <mxCell id="78To-03qvAW-9XxqEfNM-44" value="" style="outlineConnect=0;dashed=0;verticalLabelPosition=bottom;verticalAlign=top;align=center;html=1;shape=mxgraph.aws3.cloud_2;fillColor=#F58534;gradientColor=none;" vertex="1" parent="1">
          <mxGeometry x="470" y="40" width="45" height="45" as="geometry" />
        </mxCell>
        <mxCell id="78To-03qvAW-9XxqEfNM-47" value="" style="endArrow=classic;html=1;rounded=0;exitX=0.25;exitY=1;exitDx=0;exitDy=0;exitPerimeter=0;entryX=0.5;entryY=0;entryDx=0;entryDy=0;entryPerimeter=0;edgeStyle=orthogonalEdgeStyle;" edge="1" parent="1" source="78To-03qvAW-9XxqEfNM-19" target="78To-03qvAW-9XxqEfNM-17">
          <mxGeometry width="50" height="50" relative="1" as="geometry">
            <mxPoint x="780" y="710" as="sourcePoint" />
            <mxPoint x="830" y="660" as="targetPoint" />
            <Array as="points">
              <mxPoint x="722" y="515" />
            </Array>
          </mxGeometry>
        </mxCell>
        <mxCell id="78To-03qvAW-9XxqEfNM-48" value="" style="endArrow=classic;html=1;rounded=0;entryX=0.5;entryY=0;entryDx=0;entryDy=0;entryPerimeter=0;exitX=1;exitY=0.5;exitDx=0;exitDy=0;exitPerimeter=0;edgeStyle=orthogonalEdgeStyle;" edge="1" parent="1" source="78To-03qvAW-9XxqEfNM-17" target="78To-03qvAW-9XxqEfNM-12">
          <mxGeometry width="50" height="50" relative="1" as="geometry">
            <mxPoint x="610" y="740" as="sourcePoint" />
            <mxPoint x="660" y="690" as="targetPoint" />
          </mxGeometry>
        </mxCell>
        <mxCell id="78To-03qvAW-9XxqEfNM-49" value="" style="endArrow=classic;html=1;rounded=0;entryX=1;entryY=0.5;entryDx=0;entryDy=0;entryPerimeter=0;exitX=0;exitY=0.5;exitDx=0;exitDy=0;exitPerimeter=0;" edge="1" parent="1" source="78To-03qvAW-9XxqEfNM-12" target="78To-03qvAW-9XxqEfNM-10">
          <mxGeometry width="50" height="50" relative="1" as="geometry">
            <mxPoint x="780" y="910" as="sourcePoint" />
            <mxPoint x="830" y="860" as="targetPoint" />
          </mxGeometry>
        </mxCell>
        <mxCell id="78To-03qvAW-9XxqEfNM-50" value="" style="endArrow=classic;html=1;rounded=0;exitX=0;exitY=0.5;exitDx=0;exitDy=0;exitPerimeter=0;" edge="1" parent="1" source="78To-03qvAW-9XxqEfNM-10" target="78To-03qvAW-9XxqEfNM-25">
          <mxGeometry width="50" height="50" relative="1" as="geometry">
            <mxPoint x="620" y="960" as="sourcePoint" />
            <mxPoint x="670" y="910" as="targetPoint" />
          </mxGeometry>
        </mxCell>
        <mxCell id="78To-03qvAW-9XxqEfNM-52" value="" style="outlineConnect=0;dashed=0;verticalLabelPosition=bottom;verticalAlign=top;align=center;html=1;shape=mxgraph.aws3.codecommit;fillColor=#759C3E;gradientColor=none;" vertex="1" parent="1">
          <mxGeometry x="1219" y="845" width="55.94" height="68" as="geometry" />
        </mxCell>
        <mxCell id="78To-03qvAW-9XxqEfNM-53" value="" style="sketch=0;points=[[0,0,0],[0.25,0,0],[0.5,0,0],[0.75,0,0],[1,0,0],[0,1,0],[0.25,1,0],[0.5,1,0],[0.75,1,0],[1,1,0],[0,0.25,0],[0,0.5,0],[0,0.75,0],[1,0.25,0],[1,0.5,0],[1,0.75,0]];outlineConnect=0;fontColor=#232F3E;gradientColor=#4D72F3;gradientDirection=north;fillColor=#3334B9;strokeColor=#ffffff;dashed=0;verticalLabelPosition=bottom;verticalAlign=top;align=center;html=1;fontSize=12;fontStyle=0;aspect=fixed;shape=mxgraph.aws4.resourceIcon;resIcon=mxgraph.aws4.cloud9;" vertex="1" parent="1">
          <mxGeometry x="1219" y="770" width="56" height="56" as="geometry" />
        </mxCell>
        <mxCell id="78To-03qvAW-9XxqEfNM-54" value="" style="outlineConnect=0;dashed=0;verticalLabelPosition=bottom;verticalAlign=top;align=center;html=1;shape=mxgraph.aws3.codedeploy;fillColor=#759C3E;gradientColor=none;" vertex="1" parent="1">
          <mxGeometry x="1134.58" y="860" width="51.67" height="62" as="geometry" />
        </mxCell>
        <mxCell id="78To-03qvAW-9XxqEfNM-55" value="" style="outlineConnect=0;dashed=0;verticalLabelPosition=bottom;verticalAlign=top;align=center;html=1;shape=mxgraph.aws3.codepipeline;fillColor=#759C3E;gradientColor=none;" vertex="1" parent="1">
          <mxGeometry x="1134.58" y="784" width="50.83" height="61" as="geometry" />
        </mxCell>
        <mxCell id="78To-03qvAW-9XxqEfNM-57" value="Amazon CloudSearch" style="sketch=0;outlineConnect=0;fontColor=#232F3E;gradientColor=none;strokeColor=#ffffff;fillColor=#232F3E;dashed=0;verticalLabelPosition=middle;verticalAlign=bottom;align=center;html=1;whiteSpace=wrap;fontSize=10;fontStyle=1;spacing=3;shape=mxgraph.aws4.productIcon;prIcon=mxgraph.aws4.cloudsearch;" vertex="1" parent="1">
          <mxGeometry x="1050" y="810" width="54.55" height="75" as="geometry" />
        </mxCell>
      </root>
    </mxGraphModel>
  </diagram>
</mxfile>
